#N canvas 829 193 450 300 10;
#X obj 127 213 print;
#X obj 127 188 mt19937;
#X msg 42 31 poisson 2;
#X msg 68 55 gaussian 61 444;
#X msg 178 162 seed 3;
#X msg 107 78 exponential;
#X msg 140 101 gamma 2 3;
#X connect 1 0 0 0;
#X connect 2 0 1 0;
#X connect 3 0 1 0;
#X connect 4 0 1 0;
#X connect 5 0 1 0;
#X connect 6 0 1 0;
