#N canvas 567 100 705 628 10;
#X obj 26 386 print;
#X msg 49 198 seed 3;
#X msg 69 292 gamma 2 3;
#X obj 26 363 rnd ranlxs;
#X msg 68 334 uniform;
#X msg 69 313 uniform_int 127;
#X obj 185 385 print;
#X msg 230 247 gaussian 61 444;
#X msg 229 292 gamma 2 3;
#X msg 228 334 uniform;
#X msg 229 313 uniform_int 127;
#X obj 346 387 print;
#X msg 390 247 gaussian 61 444;
#X msg 390 269 exponential;
#X msg 389 292 gamma 2 3;
#X msg 388 334 uniform;
#X msg 389 313 uniform_int 127;
#X obj 346 364 rnd taus;
#X msg 70 225 poisson 12;
#X msg 230 223 poisson 122;
#X msg 390 225 poisson 1000;
#X msg 71 269 exponential 22;
#X msg 230 269 exponential 4;
#X msg 209 199 seed;
#X obj 185 363 rnd;
#X obj 509 386 print;
#X msg 553 246 gaussian 61 444;
#X msg 553 268 exponential;
#X msg 552 291 gamma 2 3;
#X msg 551 333 uniform;
#X msg 552 312 uniform_int 127;
#X msg 553 224 poisson 1000;
#X obj 509 363 rnd gfsr4;
#X msg 370 198 seed 0;
#X msg 532 197 seed 4353;
#X msg 70 247 gaussian;
#X obj 21 10 rnd;
#X text 63 9 - wrapper around gsl_rnd routines from GNU Scientific
Library;
#X connect 1 0 3 0;
#X connect 2 0 3 0;
#X connect 3 0 0 0;
#X connect 4 0 3 0;
#X connect 5 0 3 0;
#X connect 7 0 24 0;
#X connect 8 0 24 0;
#X connect 9 0 24 0;
#X connect 10 0 24 0;
#X connect 12 0 17 0;
#X connect 13 0 17 0;
#X connect 14 0 17 0;
#X connect 15 0 17 0;
#X connect 16 0 17 0;
#X connect 17 0 11 0;
#X connect 18 0 3 0;
#X connect 19 0 24 0;
#X connect 20 0 17 0;
#X connect 21 0 3 0;
#X connect 22 0 24 0;
#X connect 23 0 24 0;
#X connect 24 0 6 0;
#X connect 26 0 32 0;
#X connect 27 0 32 0;
#X connect 28 0 32 0;
#X connect 29 0 32 0;
#X connect 30 0 32 0;
#X connect 31 0 32 0;
#X connect 32 0 25 0;
#X connect 33 0 17 0;
#X connect 34 0 32 0;
#X connect 35 0 3 0;
