#N canvas 618 170 415 437 10;
#X obj 40 122 t b f;
#X msg 40 144 1;
#X obj 40 166 /;
#X obj 77 332 rnd;
#X obj 77 376 delay;
#X obj 77 398 outlet;
#X msg 37 233 exponential 0.01;
#X floatatom 65 167 5 0 0 0 - - -, f 5;
#X obj 77 354 * 1000;
#X msg 38 189 set exponential \$1;
#X obj 37 210 t b a;
#X obj 40 57 inlet mu;
#X obj 40 79 min 100;
#X obj 40 101 max 0;
#X obj 106 57 loadbang;
#X obj 106 79 f \$1;
#X obj 95 264 inlet;
#X obj 95 286 t b f;
#X obj 77 309 spigot 1;
#X text 37 14 This abstration uses a sampling from an exponential distribution
to mimic a dust (control rate) object from supercollider.;
#X connect 0 0 1 0;
#X connect 0 1 2 1;
#X connect 1 0 2 0;
#X connect 2 0 7 0;
#X connect 2 0 9 0;
#X connect 3 0 8 0;
#X connect 4 0 5 0;
#X connect 4 0 6 0;
#X connect 6 0 18 0;
#X connect 8 0 4 0;
#X connect 9 0 10 0;
#X connect 10 0 6 0;
#X connect 10 1 6 0;
#X connect 11 0 12 0;
#X connect 12 0 13 0;
#X connect 13 0 0 0;
#X connect 14 0 15 0;
#X connect 15 0 12 0;
#X connect 16 0 17 0;
#X connect 17 0 6 0;
#X connect 17 1 18 1;
#X connect 18 0 3 0;
